<svg width="179" height="58" viewBox="0 0 179 58" fill="none" xmlns="http://www.w3.org/2000/svg">
<path d="M41.6179 52.101C41.6179 53.1286 41.1952 54.0039 40.3498 54.727C39.5044 55.4501 38.5821 55.7927 37.5061 55.7927C36.8144 55.7927 36.1227 55.6024 35.5078 55.2218C34.893 54.8412 34.3934 54.2703 34.0475 53.5092L31.0885 47.0394H12.3354L9.37642 53.5092C9.03057 54.2703 8.56943 54.8412 7.95457 55.2218C7.33971 55.6024 6.68643 55.7927 5.91786 55.7927C4.84186 55.7927 3.88115 55.4501 3.03572 54.727C2.19029 54.0039 1.76758 53.1286 1.76758 52.101C1.76758 51.6063 1.92129 50.9974 2.22872 50.3504L17.2158 19.1811C17.6386 18.3058 18.215 17.6207 19.0604 17.164C19.8674 16.7074 20.7513 16.479 21.6735 16.479C22.6343 16.479 23.5181 16.7074 24.3251 17.2021C25.1321 17.6969 25.7854 18.3438 26.2081 19.1811L41.1952 50.3504C41.4642 50.9974 41.6179 51.5682 41.6179 52.101ZM15.256 40.4934H28.168L21.7504 26.2218L15.256 40.4934Z" fill="#50525D" stroke="#5E605C" stroke-miterlimit="10"/>
<path d="M86.1182 30.5986C87.6938 32.3873 88.5008 35.2797 88.5008 39.3138V52.0251C88.5008 53.3191 88.1165 54.2705 87.3479 54.9555C86.5793 55.6025 85.5802 55.945 84.3505 55.945C83.1592 55.945 82.1601 55.6025 81.3531 54.9555C80.5461 54.3086 80.1233 53.3191 80.1233 52.0251V39.1996C80.1233 37.449 79.8159 36.1931 79.2011 35.508C78.5862 34.7849 77.6639 34.4424 76.3958 34.4424C74.8586 34.4424 73.5905 34.9752 72.6682 36.0408C71.7459 37.1065 71.2848 38.5907 71.2848 40.4936V52.0251C71.2848 53.3191 70.9005 54.2705 70.1319 54.9555C69.3634 55.6025 68.3642 55.945 67.1345 55.945C65.9432 55.945 64.9441 55.6025 64.1371 54.9555C63.3301 54.3086 62.9074 53.3191 62.9074 52.0251V39.1996C62.9074 37.449 62.6 36.1931 61.9851 35.508C61.3702 34.7849 60.448 34.4424 59.1798 34.4424C57.6427 34.4424 56.3745 34.9752 55.4522 36.0408C54.53 37.1065 54.0688 38.5907 54.0688 40.4936V52.0251C54.0688 53.3191 53.6845 54.2705 52.8775 54.9555C52.0705 55.6025 51.1098 55.945 49.9185 55.945C48.7273 55.945 47.7281 55.6025 46.9211 54.9555C46.1141 54.3086 45.6914 53.3191 45.6914 52.0251V31.8545C45.6914 30.6366 46.1141 29.7233 46.9595 29.0382C47.805 28.3912 48.8041 28.0487 49.9954 28.0487C51.1098 28.0487 52.0321 28.3532 52.7623 29.0002C53.4924 29.6471 53.8767 30.5225 53.8767 31.6642V32.197C54.7605 30.7889 55.9134 29.7613 57.3352 29.0002C58.7571 28.2771 60.3711 27.8965 62.1772 27.8965C64.1371 27.8965 65.7895 28.2771 67.1345 29.0763C68.4795 29.8755 69.5171 31.1314 70.2856 32.882C71.1311 31.3597 72.3608 30.1419 73.9364 29.2285C75.5119 28.3151 77.2796 27.8965 79.2779 27.8965C82.2753 27.9345 84.5426 28.8099 86.1182 30.5986Z" fill="#50525D" stroke="#50525D" stroke-miterlimit="10"/>
<path d="M95.5709 22.4923C94.7254 21.7311 94.3027 20.7416 94.3027 19.4476C94.3027 18.1537 94.7254 17.1642 95.5709 16.4411C96.4163 15.718 97.5692 15.3374 99.0679 15.3374C100.528 15.3374 101.681 15.718 102.526 16.4791C103.41 17.2403 103.833 18.2298 103.833 19.4857C103.833 20.7797 103.41 21.7692 102.565 22.5303C101.719 23.2915 100.567 23.672 99.0679 23.672C97.5692 23.634 96.4163 23.2534 95.5709 22.4923ZM96.032 54.9175C95.225 54.2705 94.8407 53.281 94.8407 51.987V31.9306C94.8407 30.6366 95.2634 29.6852 96.0704 29.0001C96.8774 28.3532 97.8766 28.0106 99.0679 28.0106C100.259 28.0106 101.258 28.3532 102.027 29.0001C102.834 29.6471 103.218 30.6366 103.218 31.9306V51.987C103.218 53.281 102.834 54.2324 102.027 54.9175C101.22 55.5644 100.259 55.907 99.0679 55.907C97.8382 55.907 96.839 55.5644 96.032 54.9175Z" fill="#50525D" stroke="#5E605C" stroke-miterlimit="10"/>
<path d="M134 30.7507C135.576 32.6536 136.383 35.4698 136.383 39.3137V52.025C136.383 53.2428 135.999 54.1943 135.23 54.8793C134.462 55.5643 133.462 55.9069 132.156 55.9069C130.849 55.9069 129.85 55.5643 129.12 54.8793C128.39 54.1943 128.006 53.2428 128.006 52.025V39.7323C128.006 37.9055 127.66 36.5735 126.968 35.7362C126.276 34.899 125.239 34.4803 123.778 34.4803C122.049 34.4803 120.627 35.0132 119.59 36.1168C118.552 37.2205 118.014 38.6667 118.014 40.5315V52.063C118.014 53.2809 117.63 54.2323 116.9 54.9174C116.17 55.6024 115.132 55.9449 113.864 55.9449C112.596 55.9449 111.558 55.6024 110.79 54.9174C110.021 54.2323 109.637 53.2809 109.637 52.063V31.8924C109.637 30.7507 110.021 29.8373 110.828 29.1523C111.635 28.4672 112.634 28.1247 113.902 28.1247C115.055 28.1247 115.977 28.4672 116.708 29.1523C117.438 29.8373 117.784 30.7126 117.784 31.7782V32.5394C118.744 31.0932 120.012 29.9515 121.511 29.1903C123.048 28.4292 124.778 28.0486 126.699 28.0486C130.004 27.9344 132.425 28.8478 134 30.7507Z" fill="#50525D" stroke="#5E605C" stroke-miterlimit="10"/>
<path d="M172.006 41.2928C172.006 49.8177 165.05 56.7062 156.442 56.7062C147.834 56.7062 140.879 49.8177 140.879 41.2928C140.879 32.7678 147.834 25.8794 156.442 25.8794C165.012 25.8794 172.006 32.8059 172.006 41.2928Z" fill="#B7D9EC"/>
<path d="M159.287 11.0747C159.287 16.9355 154.483 21.6928 148.565 21.6928C142.647 21.6928 137.844 16.9355 137.844 11.0747C137.844 5.21376 142.647 0.456543 148.565 0.456543C154.483 0.456543 159.287 5.21376 159.287 11.0747Z" fill="#AED5CD"/>
<path d="M178.615 17.7732C178.615 21.617 175.464 24.6997 171.621 24.6997C167.778 24.6997 164.627 21.579 164.627 17.7732C164.627 13.9294 167.778 10.8467 171.621 10.8467C175.464 10.8467 178.615 13.9294 178.615 17.7732Z" fill="#CDB5E7"/>
</svg>
